<svg xmlns="http://www.w3.org/2000/svg" viewBox="0 0 24.07 23.4"><defs><style>.cls-1{fill:#fff;}</style></defs><g id="Layer_2" data-name="Layer 2"><g id="Layer_1-2" data-name="Layer 1"><path class="cls-1" d="M10.67.08A12.1,12.1,0,0,0,.07,10.58a11.94,11.94,0,0,0,7.6,12.6c.4.1.7-.1.7-.6v-1.9a6.27,6.27,0,0,1-1.1.1,2.51,2.51,0,0,1-2.5-2.3,2.92,2.92,0,0,0-.7-1.2c-.4-.1-.5-.1-.5-.2s.4-.2.5-.2c.7,0,1.3.8,1.6,1.2a2.06,2.06,0,0,0,1.7,1.2,3.09,3.09,0,0,0,1.1-.2,3.25,3.25,0,0,1,1.2-2.2c-2.8-.6-4.8-2.2-4.8-4.8a6,6,0,0,1,1.4-3.6,5,5,0,0,1-.2-1.7,4.4,4.4,0,0,1,.2-1.6.43.43,0,0,1,.4-.4h.1a5.65,5.65,0,0,1,2.9,1.6,9.27,9.27,0,0,1,2.4-.4,6.37,6.37,0,0,1,2.4.4,6.76,6.76,0,0,1,3-1.6h.1a.51.51,0,0,1,.5.4v1.6a5,5,0,0,1-.2,1.7,5.75,5.75,0,0,1,1.4,3.6c0,2.6-2,4.2-4.8,4.8a3.83,3.83,0,0,1,1.2,2.8v3.1a.64.64,0,0,0,.8.6A12.12,12.12,0,0,0,10.67.08Z"/></g></g></svg>