<svg id="Layer_1" data-name="Layer 1" xmlns="http://www.w3.org/2000/svg" viewBox="0 0 20 20"><defs><style>.cls-1{fill:#fff;}</style></defs><path class="cls-1" d="M89.1,74.6h-9a5.5,5.5,0,0,0-5.5,5.5v9a5.55,5.55,0,0,0,5.5,5.5h9a5.55,5.55,0,0,0,5.5-5.5v-9A5.55,5.55,0,0,0,89.1,74.6Zm3.75,14.5a3.74,3.74,0,0,1-3.75,3.75h-9a3.74,3.74,0,0,1-3.75-3.75v-9a3.74,3.74,0,0,1,3.75-3.75h9a3.74,3.74,0,0,1,3.75,3.75v9Z" transform="translate(-74.6 -74.6)"/><path class="cls-1" d="M84.6,79.43a5.17,5.17,0,1,0,5.17,5.17A5.2,5.2,0,0,0,84.6,79.43Zm0,8.5a3.44,3.44,0,0,1-3.42-3.41A3.42,3.42,0,0,1,88,84.6,3.48,3.48,0,0,1,84.6,87.93Z" transform="translate(-74.6 -74.6)"/><path class="cls-1" d="M89.93,77.93a1.45,1.45,0,1,0,.92.42A1.33,1.33,0,0,0,89.93,77.93Z" transform="translate(-74.6 -74.6)"/></svg>