<svg xmlns="http://www.w3.org/2000/svg" viewBox="0 0 22 21.1"><defs><style>.cls-1{fill:#fff;}</style></defs><g id="Layer_2" data-name="Layer 2"><g id="Layer_1-2" data-name="Layer 1"><path class="cls-1" d="M2.6,0A2.37,2.37,0,0,0,0,2.4,2.37,2.37,0,0,0,2.6,4.8h0A2.32,2.32,0,0,0,5.2,2.4,2.42,2.42,0,0,0,2.6,0Z"/><path class="cls-1" d="M.3,6.8H5V20.9H.3Z"/><path class="cls-1" d="M16.5,6.5c-2.5,0-4.2,2.4-4.2,2.4v-2H7.6V21h4.7V13.1c0-.4,0-.9.2-1.1a2.43,2.43,0,0,1,2.4-1.7c1.7,0,2.4,1.3,2.4,3.2v7.6H22V13C21.9,8.5,19.6,6.5,16.5,6.5Z"/></g></g></svg>