<svg xmlns="http://www.w3.org/2000/svg" viewBox="0 0 29.3 24.1"><defs><style>.cls-1{fill:#fff;}</style></defs><g id="Layer_2" data-name="Layer 2"><g id="Capa_1" data-name="Capa 1"><path class="cls-1" d="M29.3,2.7a14,14,0,0,1-3.5,1A5.9,5.9,0,0,0,28.5.4a13.68,13.68,0,0,1-3.8,1.5A6,6,0,0,0,20.3,0a6.06,6.06,0,0,0-6.1,6.1,6.6,6.6,0,0,0,.1,1.4A17.33,17.33,0,0,1,1.8,1.2,6.21,6.21,0,0,0,1,4.3a5.93,5.93,0,0,0,2.7,5A6,6,0,0,1,1,8.6v.1a6,6,0,0,0,4.9,5.9,7.77,7.77,0,0,1-1.6.2,3.75,3.75,0,0,1-1.1-.1,6,6,0,0,0,5.7,4.2,12.39,12.39,0,0,1-7.5,2.6A6.15,6.15,0,0,1,0,21.4a17.44,17.44,0,0,0,9.3,2.7c11.1,0,17.2-9.2,17.2-17.2V6.1C27.4,5,28.4,3.9,29.3,2.7Z"/></g></g></svg>